{
  "accessors": [
    {
      "bufferView": 2,
      "componentType": 5126,
      "count": 2382,
      "max": [
        3.4102160930633545,
        1.5719690322875977,
        6.0578408241271973
      ],
      "min": [
        -3.4090950489044189,
        -2.4103250503540039,
        -4.1179990768432617
      ],
      "type": "VEC3"
    },
    {
      "bufferView": 2,
      "byteOffset": 28584,
      "componentType": 5126,
      "count": 2382,
      "max": [
        0.99993360042572021,
        0.99976831674575806,
        0.99977737665176392
      ],
      "min": [
        -0.99993360042572021,
        -0.9984973669052124,
        -0.99971240758895874
      ],
      "type": "VEC3"
    },
    {
      "bufferView": 3,
      "componentType": 5126,
      "count": 2382,
      "max": [
        0.99999761581420898,
        0.9998091459274292,
        0.9994126558303833,
        1
      ],
      "min": [
        -0.99994486570358276,
        -0.99988245964050293,
        -0.99877005815505981,
        -1
      ],
      "type": "VEC4"
    },
    {
      "bufferView": 1,
      "componentType": 5126,
      "count": 2382,
      "max": [
        0.98773598670959473,
        0.99968701601028442
      ],
      "min": [
        0.00031299999682232738,
        0.00031299999682232738
      ],
      "type": "VEC2"
    },
    {
      "bufferView": 0,
      "componentType": 5125,
      "count": 11580,
      "max": [
        2381
      ],
      "min": [
        0
      ],
      "type": "SCALAR"
    },
    {
      "bufferView": 2,
      "byteOffset": 57168,
      "componentType": 5126,
      "count": 1024,
      "max": [
        1.8691790103912354,
        0.3755829930305481,
        4.1467561721801758
      ],
      "min": [
        -1.9990080595016479,
        -1.6626230478286743,
        2.1276059150695801
      ],
      "type": "VEC3"
    },
    {
      "bufferView": 2,
      "byteOffset": 69456,
      "componentType": 5126,
      "count": 1024,
      "max": [
        0.9948541522026062,
        0.99937188625335693,
        0.9993976354598999
      ],
      "min": [
        -0.9948541522026062,
        -0.99937188625335693,
        -0.9993976354598999
      ],
      "type": "VEC3"
    },
    {
      "bufferView": 3,
      "byteOffset": 38112,
      "componentType": 5126,
      "count": 1024,
      "max": [
        0.9999920129776001,
        0.99444198608398438,
        0.16010633111000061,
        1
      ],
      "min": [
        -0.99995124340057373,
        -0.99432289600372314,
        -0.18816210329532623,
        -1
      ],
      "type": "VEC4"
    },
    {
      "bufferView": 1,
      "byteOffset": 19056,
      "componentType": 5126,
      "count": 1024,
      "max": [
        0.98409199714660645,
        0.94117200374603271
      ],
      "min": [
        0.012090000323951244,
        0.064416997134685516
      ],
      "type": "VEC2"
    },
    {
      "bufferView": 0,
      "byteOffset": 46320,
      "componentType": 5125,
      "count": 5760,
      "max": [
        1023
      ],
      "min": [
        0
      ],
      "type": "SCALAR"
    }
  ],
  "asset": {
    "generator": "Sketchfab (OSG glTF plugin)",
    "version": "2.0"
  },
  "bufferViews": [
    {
      "buffer": 0,
      "byteLength": 69360,
      "byteOffset": 0,
      "name": "floatBufferViews",
      "target": 34963
    },
    {
      "buffer": 0,
      "byteLength": 27248,
      "byteOffset": 69360,
      "byteStride": 8,
      "name": "floatBufferViews",
      "target": 34962
    },
    {
      "buffer": 0,
      "byteLength": 81744,
      "byteOffset": 96608,
      "byteStride": 12,
      "name": "floatBufferViews",
      "target": 34962
    },
    {
      "buffer": 0,
      "byteLength": 54496,
      "byteOffset": 178352,
      "byteStride": 16,
      "name": "floatBufferViews",
      "target": 34962
    }
  ],
  "buffers": [
    {
      "byteLength": 232848,
      "uri": "scene.bin"
    }
  ],
  "extensionsRequired": [
    "KHR_materials_pbrSpecularGlossiness"
  ],
  "extensionsUsed": [
    "KHR_materials_pbrSpecularGlossiness"
  ],
  "images": [
    {
      "uri": "textures/Material.002_diffuse.jpg"
    },
    {
      "uri": "textures/Material_diffuse.jpg"
    }
  ],
  "materials": [
    {
      "doubleSided": true,
      "emissiveFactor": [
        0,
        0,
        0
      ],
      "extensions": {
        "KHR_materials_pbrSpecularGlossiness": {
          "diffuseFactor": [
            1,
            1,
            1,
            1
          ],
          "diffuseTexture": {
            "index": 1,
            "texCoord": 0
          },
          "glossinessFactor": 0,
          "specularFactor": [
            0,
            0,
            0
          ]
        }
      },
      "name": "Material",
      "occlusionFactor": 1
    },
    {
      "doubleSided": true,
      "emissiveFactor": [
        0,
        0,
        0
      ],
      "extensions": {
        "KHR_materials_pbrSpecularGlossiness": {
          "diffuseFactor": [
            1,
            1,
            1,
            1
          ],
          "diffuseTexture": {
            "index": 0,
            "texCoord": 0
          },
          "glossinessFactor": 0,
          "specularFactor": [
            0,
            0,
            0
          ]
        }
      },
      "name": "Material.002",
      "occlusionFactor": 1
    }
  ],
  "meshes": [
    {
      "primitives": [
        {
          "attributes": {
            "NORMAL": 1,
            "POSITION": 0,
            "TANGENT": 2,
            "TEXCOORD_0": 3
          },
          "indices": 4,
          "material": 0,
          "mode": 4
        }
      ]
    },
    {
      "primitives": [
        {
          "attributes": {
            "NORMAL": 6,
            "POSITION": 5,
            "TANGENT": 7,
            "TEXCOORD_0": 8
          },
          "indices": 9,
          "material": 1,
          "mode": 4
        }
      ]
    }
  ],
  "nodes": [
    {
      "children": [
        1
      ],
      "name": "RootNode (gltf orientation matrix)",
      "rotation": [
        -0.70710678118654746,
        -0,
        -0,
        0.70710678118654757
      ]
    },
    {
      "children": [
        2
      ],
      "name": "RootNode (model correction matrix)"
    },
    {
      "children": [
        3
      ],
      "name": "Monster.obj.cleaner"
    },
    {
      "children": [
        4,
        5
      ],
      "name": "Geode"
    },
    {
      "mesh": 0,
      "name": ""
    },
    {
      "mesh": 1,
      "name": ""
    }
  ],
  "samplers": [
    {
      "magFilter": 9729,
      "minFilter": 9987,
      "wrapS": 10497,
      "wrapT": 10497
    }
  ],
  "scene": 0,
  "scenes": [
    {
      "name": "OSG_Scene",
      "nodes": [
        0
      ]
    }
  ],
  "textures": [
    {
      "sampler": 0,
      "source": 0
    },
    {
      "sampler": 0,
      "source": 1
    }
  ]
}

