{
  "accessors": [
    {
      "bufferView": 2,
      "componentType": 5126,
      "count": 404,
      "max": [
        22.162288665771484,
        19.988739013671875,
        6.2268104553222656
      ],
      "min": [
        0,
        0,
        0.15236103534698486
      ],
      "type": "VEC3"
    },
    {
      "bufferView": 0,
      "componentType": 5125,
      "count": 488,
      "max": [
        403
      ],
      "min": [
        0
      ],
      "type": "SCALAR"
    },
    {
      "bufferView": 2,
      "byteOffset": 4848,
      "componentType": 5126,
      "count": 65532,
      "max": [
        12.818151473999023,
        19.988592147827148,
        6.8273410797119141
      ],
      "min": [
        3.0517578125e-05,
        8.6622085571289062,
        0.91775399446487427
      ],
      "type": "VEC3"
    },
    {
      "bufferView": 2,
      "byteOffset": 791232,
      "componentType": 5126,
      "count": 65532,
      "max": [
        0.99808770418167114,
        0.99830728769302368,
        0.95882022380828857
      ],
      "min": [
        -0.99834644794464111,
        -0.99829107522964478,
        0.056297946721315384
      ],
      "type": "VEC3"
    },
    {
      "bufferView": 1,
      "componentType": 5126,
      "count": 65532,
      "max": [
        0.5284000039100647,
        0.8474000096321106
      ],
      "min": [
        0.15199999511241913,
        0.075999997556209564
      ],
      "type": "VEC2"
    },
    {
      "bufferView": 3,
      "componentType": 5126,
      "count": 65532,
      "max": [
        0.99915236234664917,
        0.9993937611579895,
        0.88546484708786011,
        1
      ],
      "min": [
        -0.9994957447052002,
        -0.99940687417984009,
        0.020904827862977982,
        1
      ],
      "type": "VEC4"
    },
    {
      "bufferView": 0,
      "byteOffset": 1952,
      "componentType": 5125,
      "count": 284670,
      "max": [
        65531
      ],
      "min": [
        0
      ],
      "type": "SCALAR"
    },
    {
      "bufferView": 2,
      "byteOffset": 1577616,
      "componentType": 5126,
      "count": 65532,
      "max": [
        18.958065032958984,
        19.988826751708984,
        7.1652240753173828
      ],
      "min": [
        2.551849365234375,
        8.0220670700073242,
        0.91775298118591309
      ],
      "type": "VEC3"
    },
    {
      "bufferView": 2,
      "byteOffset": 2364000,
      "componentType": 5126,
      "count": 65532,
      "max": [
        0.99835735559463501,
        0.99830585718154907,
        0.95882171392440796
      ],
      "min": [
        -0.99835830926895142,
        -0.99830728769302368,
        0.056298449635505676
      ],
      "type": "VEC3"
    },
    {
      "bufferView": 1,
      "byteOffset": 524256,
      "componentType": 5126,
      "count": 65532,
      "max": [
        0.5284000039100647,
        0.8474000096321106
      ],
      "min": [
        0.15199999511241913,
        0.075999997556209564
      ],
      "type": "VEC2"
    },
    {
      "bufferView": 3,
      "byteOffset": 1048512,
      "componentType": 5126,
      "count": 65532,
      "max": [
        0.9994959831237793,
        0.99940669536590576,
        0.88547611236572266,
        1
      ],
      "min": [
        -0.99949723482131958,
        -0.99940687417984009,
        0.020888764411211014,
        1
      ],
      "type": "VEC4"
    },
    {
      "bufferView": 0,
      "byteOffset": 1140632,
      "componentType": 5125,
      "count": 284736,
      "max": [
        65531
      ],
      "min": [
        0
      ],
      "type": "SCALAR"
    },
    {
      "bufferView": 2,
      "byteOffset": 3150384,
      "componentType": 5126,
      "count": 65532,
      "max": [
        22.162424087524414,
        19.98858642578125,
        7.9192399978637695
      ],
      "min": [
        3.6522426605224609,
        1.9018344879150391,
        0.91775298118591309
      ],
      "type": "VEC3"
    },
    {
      "bufferView": 2,
      "byteOffset": 3936768,
      "componentType": 5126,
      "count": 65532,
      "max": [
        0.99834537506103516,
        0.99828952550888062,
        0.95882022380828857
      ],
      "min": [
        -0.99835830926895142,
        -0.99830585718154907,
        0.056299146264791489
      ],
      "type": "VEC3"
    },
    {
      "bufferView": 1,
      "byteOffset": 1048512,
      "componentType": 5126,
      "count": 65532,
      "max": [
        0.5284000039100647,
        0.8474000096321106
      ],
      "min": [
        0.15199999511241913,
        0.075999997556209564
      ],
      "type": "VEC2"
    },
    {
      "bufferView": 3,
      "byteOffset": 2097024,
      "componentType": 5126,
      "count": 65532,
      "max": [
        0.9994959831237793,
        0.99940675497055054,
        0.88548737764358521,
        1
      ],
      "min": [
        -0.99949771165847778,
        -0.99939072132110596,
        0.020896168425679207,
        1
      ],
      "type": "VEC4"
    },
    {
      "bufferView": 0,
      "byteOffset": 2279576,
      "componentType": 5125,
      "count": 284838,
      "max": [
        65531
      ],
      "min": [
        0
      ],
      "type": "SCALAR"
    },
    {
      "bufferView": 2,
      "byteOffset": 4723152,
      "componentType": 5126,
      "count": 65532,
      "max": [
        13.601905822753906,
        12.388491630554199,
        7.0157966613769531
      ],
      "min": [
        0.0021724700927734375,
        4.291534423828125e-05,
        0.21821403503417969
      ],
      "type": "VEC3"
    },
    {
      "bufferView": 2,
      "byteOffset": 5509536,
      "componentType": 5126,
      "count": 65532,
      "max": [
        0.99835735559463501,
        0.99830585718154907,
        0.95882022380828857
      ],
      "min": [
        -0.99834418296813965,
        -0.99828952550888062,
        0.056299932301044464
      ],
      "type": "VEC3"
    },
    {
      "bufferView": 1,
      "byteOffset": 1572768,
      "componentType": 5126,
      "count": 65532,
      "max": [
        0.5284000039100647,
        0.8474000096321106
      ],
      "min": [
        0.15199999511241913,
        0.075999997556209564
      ],
      "type": "VEC2"
    },
    {
      "bufferView": 3,
      "byteOffset": 3145536,
      "componentType": 5126,
      "count": 65532,
      "max": [
        0.99949771165847778,
        0.99939405918121338,
        0.88839167356491089,
        1
      ],
      "min": [
        -0.99949663877487183,
        -0.99940669536590576,
        0.020941341295838356,
        1
      ],
      "type": "VEC4"
    },
    {
      "bufferView": 0,
      "byteOffset": 3418928,
      "componentType": 5125,
      "count": 285171,
      "max": [
        65531
      ],
      "min": [
        0
      ],
      "type": "SCALAR"
    },
    {
      "bufferView": 2,
      "byteOffset": 6295920,
      "componentType": 5126,
      "count": 65532,
      "max": [
        19.762626647949219,
        12.067168235778809,
        7.430872917175293
      ],
      "min": [
        3.5396499633789062,
        2.193450927734375e-05,
        0.47282898426055908
      ],
      "type": "VEC3"
    },
    {
      "bufferView": 2,
      "byteOffset": 7082304,
      "componentType": 5126,
      "count": 65532,
      "max": [
        0.99835735559463501,
        0.99828952550888062,
        0.95882022380828857
      ],
      "min": [
        -0.99835735559463501,
        -0.99830585718154907,
        0.056298717856407166
      ],
      "type": "VEC3"
    },
    {
      "bufferView": 1,
      "byteOffset": 2097024,
      "componentType": 5126,
      "count": 65532,
      "max": [
        0.5284000039100647,
        0.8474000096321106
      ],
      "min": [
        0.15199999511241913,
        0.075999997556209564
      ],
      "type": "VEC2"
    },
    {
      "bufferView": 3,
      "byteOffset": 4194048,
      "componentType": 5126,
      "count": 65532,
      "max": [
        0.99949586391448975,
        0.99940681457519531,
        0.88838666677474976,
        1
      ],
      "min": [
        -0.9994969367980957,
        -0.99940723180770874,
        0.020922156050801277,
        1
      ],
      "type": "VEC4"
    },
    {
      "bufferView": 0,
      "byteOffset": 4559612,
      "componentType": 5125,
      "count": 285117,
      "max": [
        65531
      ],
      "min": [
        0
      ],
      "type": "SCALAR"
    },
    {
      "bufferView": 2,
      "byteOffset": 7868688,
      "componentType": 5126,
      "count": 65532,
      "max": [
        22.162050247192383,
        12.456249237060547,
        6.6537981033325195
      ],
      "min": [
        9.1497869491577148,
        3.24249267578125e-05,
        0
      ],
      "type": "VEC3"
    },
    {
      "bufferView": 2,
      "byteOffset": 8655072,
      "componentType": 5126,
      "count": 65532,
      "max": [
        0.99834537506103516,
        0.99830585718154907,
        0.95882022380828857
      ],
      "min": [
        -0.99808770418167114,
        -0.99830585718154907,
        0.056300636380910873
      ],
      "type": "VEC3"
    },
    {
      "bufferView": 1,
      "byteOffset": 2621280,
      "componentType": 5126,
      "count": 65532,
      "max": [
        0.5284000039100647,
        0.8474000096321106
      ],
      "min": [
        0.15199999511241913,
        0.075999997556209564
      ],
      "type": "VEC2"
    },
    {
      "bufferView": 3,
      "byteOffset": 5242560,
      "componentType": 5126,
      "count": 65532,
      "max": [
        0.99955421686172485,
        0.99940675497055054,
        0.88549619913101196,
        1
      ],
      "min": [
        -0.99949771165847778,
        -0.99939066171646118,
        0.02087957039475441,
        1
      ],
      "type": "VEC4"
    },
    {
      "bufferView": 0,
      "byteOffset": 5700080,
      "componentType": 5125,
      "count": 284727,
      "max": [
        65531
      ],
      "min": [
        0
      ],
      "type": "SCALAR"
    },
    {
      "bufferView": 2,
      "byteOffset": 9441456,
      "componentType": 5126,
      "count": 10352,
      "max": [
        22.155017852783203,
        11.106473922729492,
        6.0767431259155273
      ],
      "min": [
        13.946252822875977,
        3.2320694923400879,
        0.2308499813079834
      ],
      "type": "VEC3"
    },
    {
      "bufferView": 2,
      "byteOffset": 9565680,
      "componentType": 5126,
      "count": 10352,
      "max": [
        0.99739068746566772,
        0.99725878238677979,
        0.95881420373916626
      ],
      "min": [
        -0.99741733074188232,
        -0.99731075763702393,
        0.056397669017314911
      ],
      "type": "VEC3"
    },
    {
      "bufferView": 1,
      "byteOffset": 3145536,
      "componentType": 5126,
      "count": 10352,
      "max": [
        0.5284000039100647,
        0.8474000096321106
      ],
      "min": [
        0.15199999511241913,
        0.075999997556209564
      ],
      "type": "VEC2"
    },
    {
      "bufferView": 3,
      "byteOffset": 6291072,
      "componentType": 5126,
      "count": 10352,
      "max": [
        0.99912214279174805,
        0.99825400114059448,
        0.87625741958618164,
        1
      ],
      "min": [
        -0.99915111064910889,
        -0.99822115898132324,
        0.031685329973697662,
        1
      ],
      "type": "VEC4"
    },
    {
      "bufferView": 0,
      "byteOffset": 6838988,
      "componentType": 5125,
      "count": 45111,
      "max": [
        10351
      ],
      "min": [
        0
      ],
      "type": "SCALAR"
    }
  ],
  "asset": {
    "generator": "Sketchfab (OSG glTF plugin)",
    "version": "2.0"
  },
  "bufferViews": [
    {
      "buffer": 0,
      "byteLength": 7019432,
      "byteOffset": 0,
      "name": "ScalarBufferView",
      "target": 34963
    },
    {
      "buffer": 0,
      "byteLength": 3228352,
      "byteOffset": 7019432,
      "byteStride": 8,
      "name": "Vec3BufferView",
      "target": 34962
    },
    {
      "buffer": 0,
      "byteLength": 9689904,
      "byteOffset": 10247784,
      "byteStride": 12,
      "name": "Vec4BufferView",
      "target": 34962
    },
    {
      "buffer": 0,
      "byteLength": 6456704,
      "byteOffset": 19937688,
      "byteStride": 16,
      "name": "MatrixBufferView",
      "target": 34962
    }
  ],
  "buffers": [
    {
      "byteLength": 26394392,
      "uri": "scene.bin"
    }
  ],
  "images": [
    {
      "uri": "textures/Grass_baseColor.png"
    }
  ],
  "materials": [
    {
      "doubleSided": true,
      "emissiveFactor": [
        0,
        0,
        0
      ],
      "name": "Grass",
      "pbrMetallicRoughness": {
        "baseColorFactor": [
          1,
          1,
          1,
          1
        ],
        "baseColorTexture": {
          "index": 0,
          "texCoord": 0
        },
        "metallicFactor": 0.6766257725,
        "roughnessFactor": 0.26558282770000002
      }
    }
  ],
  "meshes": [
    {
      "name": "Grass_Plane.1566",
      "primitives": [
        {
          "attributes": {
            "POSITION": 0
          },
          "indices": 1,
          "material": 0,
          "mode": 1
        },
        {
          "attributes": {
            "NORMAL": 3,
            "POSITION": 2,
            "TANGENT": 5,
            "TEXCOORD_0": 4
          },
          "indices": 6,
          "material": 0,
          "mode": 4
        },
        {
          "attributes": {
            "NORMAL": 8,
            "POSITION": 7,
            "TANGENT": 10,
            "TEXCOORD_0": 9
          },
          "indices": 11,
          "material": 0,
          "mode": 4
        },
        {
          "attributes": {
            "NORMAL": 13,
            "POSITION": 12,
            "TANGENT": 15,
            "TEXCOORD_0": 14
          },
          "indices": 16,
          "material": 0,
          "mode": 4
        },
        {
          "attributes": {
            "NORMAL": 18,
            "POSITION": 17,
            "TANGENT": 20,
            "TEXCOORD_0": 19
          },
          "indices": 21,
          "material": 0,
          "mode": 4
        },
        {
          "attributes": {
            "NORMAL": 23,
            "POSITION": 22,
            "TANGENT": 25,
            "TEXCOORD_0": 24
          },
          "indices": 26,
          "material": 0,
          "mode": 4
        },
        {
          "attributes": {
            "NORMAL": 28,
            "POSITION": 27,
            "TANGENT": 30,
            "TEXCOORD_0": 29
          },
          "indices": 31,
          "material": 0,
          "mode": 4
        },
        {
          "attributes": {
            "NORMAL": 33,
            "POSITION": 32,
            "TANGENT": 35,
            "TEXCOORD_0": 34
          },
          "indices": 36,
          "material": 0,
          "mode": 4
        }
      ]
    }
  ],
  "nodes": [
    {
      "children": [
        1
      ],
      "name": "RootNode (gltf orientation matrix)",
      "rotation": [
        -0.70710678118654746,
        -0,
        -0,
        0.70710678118654757
      ]
    },
    {
      "children": [
        2
      ],
      "name": "RootNode (model correction matrix)"
    },
    {
      "children": [
        3
      ],
      "matrix": [
        1,
        0,
        0,
        0,
        0,
        1,
        0,
        0,
        0,
        0,
        1,
        0,
        -14.572671890258789,
        -10.27372932434082,
        -1.64546799659729,
        1
      ],
      "name": "Grass.obj.cleaner.gles"
    },
    {
      "children": [
        4
      ],
      "name": ""
    },
    {
      "mesh": 0,
      "name": "Grass_Plane.1566"
    }
  ],
  "samplers": [
    {
      "magFilter": 9729,
      "minFilter": 9987,
      "wrapS": 10497,
      "wrapT": 10497
    }
  ],
  "scene": 0,
  "scenes": [
    {
      "name": "OSG_Scene",
      "nodes": [
        0
      ]
    }
  ],
  "textures": [
    {
      "sampler": 0,
      "source": 0
    }
  ]
}

